<svg width="41" height="40" viewBox="0 0 41 40" fill="none" xmlns="http://www.w3.org/2000/svg">
<path d="M34.2885 11.4286C35.4187 11.4286 36.5235 11.0934 37.4632 10.4655C38.4029 9.83765 39.1353 8.9452 39.5678 7.90105C40.0003 6.8569 40.1135 5.70795 39.893 4.59948C39.6725 3.49102 39.1283 2.47283 38.3291 1.67368C37.53 0.87452 36.5118 0.330288 35.4033 0.109801C34.2948 -0.110686 33.1459 0.00247592 32.1017 0.434976C31.0576 0.867477 30.1651 1.59989 29.5372 2.5396C28.9094 3.47931 28.5742 4.58411 28.5742 5.71429C28.5742 7.22981 29.1763 8.68326 30.2479 9.7549C31.3195 10.8265 32.773 11.4286 34.2885 11.4286ZM34.2885 2.85714C34.8536 2.85714 35.406 3.02471 35.8758 3.33866C36.3457 3.65261 36.7119 4.09883 36.9282 4.6209C37.1444 5.14298 37.201 5.71746 37.0907 6.27169C36.9805 6.82592 36.7084 7.33501 36.3088 7.73459C35.9092 8.13417 35.4001 8.40629 34.8459 8.51653C34.2917 8.62677 33.7172 8.57019 33.1951 8.35394C32.673 8.13769 32.2268 7.77148 31.9129 7.30163C31.5989 6.83177 31.4314 6.27938 31.4314 5.71429C31.4314 4.95653 31.7324 4.2298 32.2682 3.69398C32.804 3.15816 33.5307 2.85714 34.2885 2.85714Z" fill="#63FFBA"/>
<path d="M38.5744 12.8571H31.4315C31.0526 12.8571 30.6893 13.0077 30.4214 13.2756C30.1535 13.5435 30.003 13.9068 30.003 14.2857C30.003 14.6646 30.1535 15.028 30.4214 15.2959C30.6893 15.5638 31.0526 15.7143 31.4315 15.7143H37.0601L35.803 37.1428H32.7315L31.5744 24.2857H32.8601C33.239 24.2857 33.6023 24.1352 33.8702 23.8673C34.1382 23.5994 34.2887 23.236 34.2887 22.8571C34.2887 22.4783 34.1382 22.1149 33.8702 21.847C33.6023 21.5791 33.239 21.4286 32.8601 21.4286H25.7172V19.6L29.0315 18.5714C29.3915 18.4502 29.6885 18.1909 29.8573 17.8507C30.0261 17.5104 30.0528 17.1171 29.9315 16.7571C29.8103 16.3972 29.551 16.1002 29.2108 15.9314C28.8705 15.7626 28.4772 15.7359 28.1172 15.8571L23.8315 17.2857C23.559 17.3774 23.3205 17.5491 23.1472 17.7785C22.9739 18.0079 22.8738 18.2843 22.8601 18.5714V21.4286H17.1458V18.5714C17.1466 18.2719 17.0532 17.9798 16.8789 17.7362C16.7046 17.4927 16.4581 17.3101 16.1744 17.2143L11.8887 15.7857C11.7058 15.7257 11.5128 15.7023 11.3209 15.7168C11.1289 15.7313 10.9417 15.7835 10.7699 15.8704C10.4229 16.0459 10.1599 16.352 10.0387 16.7214C9.97864 16.9043 9.95522 17.0973 9.96976 17.2892C9.98429 17.4812 10.0365 17.6684 10.1234 17.8402C10.2103 18.012 10.3301 18.165 10.4762 18.2905C10.6222 18.4159 10.7915 18.5114 10.9744 18.5714L14.2887 19.6714V21.4286H7.14582C6.76693 21.4286 6.40357 21.5791 6.13566 21.847C5.86775 22.1149 5.71724 22.4783 5.71724 22.8571C5.71724 23.236 5.86775 23.5994 6.13566 23.8673C6.40357 24.1352 6.76693 24.2857 7.14582 24.2857H8.43153L7.27439 37.1428H4.20296L2.94582 15.7143H8.57439C8.95327 15.7143 9.31663 15.5638 9.58454 15.2959C9.85245 15.028 10.003 14.6646 10.003 14.2857C10.003 13.9068 9.85245 13.5435 9.58454 13.2756C9.31663 13.0077 8.95327 12.8571 8.57439 12.8571H1.43153C1.23669 12.8559 1.04367 12.8946 0.864323 12.9708C0.684981 13.0469 0.523113 13.159 0.388675 13.3C0.254356 13.4426 0.150801 13.6113 0.0844466 13.7956C0.0180919 13.9799 -0.00964469 14.1759 0.00296062 14.3714L1.43153 38.6571C1.4534 39.021 1.61351 39.3627 1.87909 39.6123C2.14466 39.862 2.49562 40.0006 2.8601 40H8.57439C8.93201 40.0014 9.27717 39.8687 9.54167 39.628C9.80617 39.3873 9.97077 39.0562 10.003 38.7L11.303 24.2857H28.703L30.003 38.7C30.0351 39.0562 30.1997 39.3873 30.4642 39.628C30.7287 39.8687 31.0739 40.0014 31.4315 40H37.1458C37.5103 40.0006 37.8612 39.862 38.1268 39.6123C38.3924 39.3627 38.5525 39.021 38.5744 38.6571L40.0029 14.3714C40.0156 14.1759 39.9878 13.9799 39.9215 13.7956C39.8551 13.6113 39.7516 13.4426 39.6172 13.3C39.4828 13.159 39.3209 13.0469 39.1416 12.9708C38.9622 12.8946 38.7692 12.8559 38.5744 12.8571Z" fill="#6C63FF"/>
<path d="M5.71624 11.4286C6.84642 11.4286 7.95121 11.0934 8.89092 10.4655C9.83063 9.83765 10.563 8.9452 10.9955 7.90105C11.428 6.8569 11.5412 5.70795 11.3207 4.59948C11.1002 3.49102 10.556 2.47283 9.75685 1.67368C8.95769 0.87452 7.9395 0.330288 6.83104 0.109801C5.72258 -0.110686 4.57362 0.00247589 3.52948 0.434976C2.48533 0.867477 1.59288 1.59989 0.964984 2.5396C0.33709 3.47931 0.00195313 4.58411 0.00195312 5.71429C0.00195313 7.22981 0.603992 8.68326 1.67563 9.7549C2.74726 10.8265 4.20071 11.4286 5.71624 11.4286ZM5.71624 2.85714C6.28133 2.85714 6.83372 3.02471 7.30358 3.33866C7.77343 3.65261 8.13964 4.09883 8.35589 4.6209C8.57214 5.14298 8.62872 5.71746 8.51848 6.27169C8.40824 6.82592 8.13612 7.33501 7.73654 7.73459C7.33696 8.13417 6.82787 8.40629 6.27364 8.51653C5.71941 8.62677 5.14493 8.57019 4.62286 8.35394C4.10078 8.13769 3.65456 7.77148 3.34061 7.30163C3.02666 6.83177 2.85909 6.27938 2.85909 5.71429C2.85909 4.95652 3.16011 4.2298 3.69593 3.69398C4.23175 3.15816 4.95848 2.85714 5.71624 2.85714Z" fill="#63FFBA"/>
</svg>
