<svg width="40" height="40" viewBox="0 0 40 40" fill="none" xmlns="http://www.w3.org/2000/svg">
<path d="M15 35.9375C14.8342 35.9375 14.6753 36.0034 14.5581 36.1206C14.4409 36.2378 14.375 36.3967 14.375 36.5625V39.375C14.375 39.5408 14.4408 39.6997 14.5581 39.8169C14.6753 39.9342 14.8342 40 15 40C15.1658 40 15.3247 39.9342 15.4419 39.8169C15.5592 39.6997 15.625 39.5408 15.625 39.375V36.5625C15.625 36.3967 15.5591 36.2378 15.4419 36.1206C15.3247 36.0034 15.1658 35.9375 15 35.9375Z" fill="#63FFBA"/>
<path d="M25.625 35.9375C25.4592 35.9375 25.3003 36.0034 25.1831 36.1206C25.0659 36.2378 25 36.3967 25 36.5625V39.375C25 39.5408 25.0658 39.6997 25.1831 39.8169C25.3003 39.9342 25.4592 40 25.625 40C25.7908 40 25.9497 39.9342 26.0669 39.8169C26.1842 39.6997 26.25 39.5408 26.25 39.375V36.5625C26.25 36.3967 26.1841 36.2378 26.0669 36.1206C25.9497 36.0034 25.7908 35.9375 25.625 35.9375Z" fill="#63FFBA"/>
<path d="M20 10C22.7614 10 25 7.76142 25 5C25 2.23858 22.7614 0 20 0C17.2386 0 15 2.23858 15 5C15 7.76142 17.2386 10 20 10Z" fill="#6C63FF"/>
<path d="M10.313 19.375H11.563V15.4273C11.563 12.7792 13.6314 10.625 16.1739 10.625H17.2941C16.6559 10.3188 16.0741 9.9069 15.5733 9.40665C14.1091 9.58653 12.7627 10.3003 11.7921 11.4112C10.8214 12.5221 10.2948 13.9521 10.313 15.4273V19.375Z" fill="#63FFBA"/>
<path d="M22.7061 10.625H23.8266C26.369 10.625 28.4375 12.7792 28.4375 15.4273V19.375H29.6875V15.4273C29.7057 13.9521 29.1791 12.5221 28.2084 11.4112C27.2377 10.3002 25.8913 9.58646 24.427 9.40662C23.9262 9.90688 23.3443 10.3188 22.7061 10.625Z" fill="#63FFBA"/>
<path d="M24.1391 27.5H16.4859C13.2541 27.5 10.625 30.215 10.625 33.5522V39.375C10.625 39.5408 10.6908 39.6997 10.8081 39.8169C10.9253 39.9342 11.0842 40 11.25 40C11.4158 40 11.5747 39.9342 11.6919 39.8169C11.8092 39.6997 11.875 39.5408 11.875 39.375V33.5522C11.875 30.9042 13.9435 28.75 16.4859 28.75H24.1391C26.6815 28.75 28.75 30.9042 28.75 33.5522V39.375C28.75 39.5408 28.8158 39.6997 28.9331 39.8169C29.0503 39.9342 29.2092 40 29.375 40C29.5408 40 29.6997 39.9342 29.8169 39.8169C29.9342 39.6997 30 39.5408 30 39.375V33.5522C30 30.215 27.3709 27.5 24.1391 27.5Z" fill="#63FFBA"/>
<path d="M4.0625 8.125C4.86599 8.125 5.65143 7.88674 6.3195 7.44035C6.98758 6.99395 7.50828 6.35948 7.81576 5.61715C8.12324 4.87483 8.20369 4.058 8.04694 3.26995C7.89019 2.4819 7.50327 1.75803 6.93512 1.18988C6.36697 0.62173 5.6431 0.234814 4.85505 0.0780616C4.06701 -0.0786908 3.25017 0.00176022 2.50785 0.309241C1.76552 0.616722 1.13105 1.13742 0.684655 1.8055C0.238261 2.47357 0 3.25902 0 4.0625C0.00121916 5.13957 0.429623 6.17217 1.19123 6.93378C1.95283 7.69538 2.98543 8.12378 4.0625 8.125Z" fill="#4849FF"/>
<path d="M9.6875 10.625C10.723 10.625 11.5625 9.78553 11.5625 8.75C11.5625 7.71447 10.723 6.875 9.6875 6.875C8.65197 6.875 7.8125 7.71447 7.8125 8.75C7.8125 9.78553 8.65197 10.625 9.6875 10.625Z" fill="#63FFBA"/>
<path d="M35.9375 8.125C36.741 8.125 37.5264 7.88674 38.1945 7.44035C38.8626 6.99395 39.3833 6.35948 39.6908 5.61715C39.9982 4.87483 40.0787 4.058 39.9219 3.26995C39.7652 2.4819 39.3783 1.75803 38.8101 1.18988C38.242 0.62173 37.5181 0.234814 36.7301 0.0780616C35.942 -0.0786908 35.1252 0.00176022 34.3828 0.309241C33.6405 0.616722 33.006 1.13742 32.5597 1.8055C32.1133 2.47357 31.875 3.25902 31.875 4.0625C31.8762 5.13957 32.3046 6.17217 33.0662 6.93378C33.8278 7.69538 34.8604 8.12378 35.9375 8.125Z" fill="#63FFBA"/>
<path d="M30.3125 10.625C31.348 10.625 32.1875 9.78553 32.1875 8.75C32.1875 7.71447 31.348 6.875 30.3125 6.875C29.277 6.875 28.4375 7.71447 28.4375 8.75C28.4375 9.78553 29.277 10.625 30.3125 10.625Z" fill="#4849FF"/>
<path d="M20.3125 26.25C23.0739 26.25 25.3125 24.0114 25.3125 21.25C25.3125 18.4886 23.0739 16.25 20.3125 16.25C17.5511 16.25 15.3125 18.4886 15.3125 21.25C15.3125 24.0114 17.5511 26.25 20.3125 26.25Z" fill="#63FFBA"/>
<path d="M14.0625 21.25C14.0625 21.039 14.0736 20.8307 14.0942 20.625H1.875C1.54359 20.6254 1.22585 20.7572 0.991507 20.9915C0.757163 21.2259 0.625353 21.5436 0.625 21.875V23.75C0.625353 24.0814 0.757163 24.3991 0.991507 24.6335C1.22585 24.8678 1.54359 24.9996 1.875 25H6.25V36.25C6.25 36.4158 6.31585 36.5747 6.43306 36.6919C6.55027 36.8092 6.70924 36.875 6.875 36.875C7.04076 36.875 7.19973 36.8092 7.31694 36.6919C7.43415 36.5747 7.5 36.4158 7.5 36.25V25H15.3244C14.5061 23.921 14.063 22.6042 14.0625 21.25Z" fill="#4849FF"/>
<path d="M38.1253 20.625H26.5311C26.5517 20.8307 26.5628 21.039 26.5628 21.25C26.5623 22.6042 26.1191 23.9211 25.3008 25H32.5003V36.25C32.5003 36.4158 32.5661 36.5747 32.6834 36.6919C32.8006 36.8092 32.9595 36.875 33.1253 36.875C33.2911 36.875 33.45 36.8092 33.5672 36.6919C33.6845 36.5747 33.7503 36.4158 33.7503 36.25V25H38.1253C38.4567 24.9996 38.7744 24.8678 39.0088 24.6335C39.2431 24.3991 39.3749 24.0814 39.3753 23.75V21.875C39.3749 21.5436 39.2431 21.2259 39.0088 20.9915C38.7744 20.7572 38.4567 20.6254 38.1253 20.625Z" fill="#4849FF"/>
</svg>
