<svg width="44" height="40" viewBox="0 0 44 40" fill="none" xmlns="http://www.w3.org/2000/svg">
<path d="M28.4188 24.8012H24.6302V21.0121C24.6302 20.6212 24.3134 20.3048 23.9229 20.3048H19.9287C19.5383 20.3048 19.2215 20.6212 19.2215 21.0121V24.8012H15.4329C15.0424 24.8012 14.7256 25.1176 14.7256 25.5085V29.5027C14.7256 29.8936 15.0424 30.2099 15.4329 30.2099H19.2215V33.9986C19.2215 34.3895 19.5383 34.7058 19.9287 34.7058H23.9229C24.3134 34.7058 24.6302 34.3895 24.6302 33.9986V30.2099H28.4188C28.8093 30.2099 29.1261 29.8936 29.1261 29.5027V25.5085C29.1261 25.1176 28.8093 24.8012 28.4188 24.8012ZM27.7116 28.7949H23.9229C23.5325 28.7949 23.2157 29.1113 23.2157 29.5022V33.2908H20.636V29.5022C20.636 29.1113 20.3192 28.7949 19.9287 28.7949H16.1401V26.2153H19.9287C20.3192 26.2153 20.636 25.8989 20.636 25.508V21.7189H23.2157V25.508C23.2157 25.8989 23.5325 26.2153 23.9229 26.2153H27.7116V28.7949Z" fill="#63FFBA"/>
<path d="M41.2575 8.01575H31.5325V4.76937C31.5325 2.13973 29.3933 0 26.7636 0H17.0872C14.4576 0 12.3183 2.13973 12.3183 4.76937V8.01575H2.59333C1.1637 8.01575 0 9.17898 0 10.6091V15.717V37.4067C0 38.8368 1.1637 40 2.59333 40H41.2575C42.6872 40 43.8509 38.8368 43.8509 37.4067V15.717V10.6091C43.8509 9.17945 42.6872 8.01575 41.2575 8.01575ZM13.7329 4.76937C13.7329 2.91962 15.2375 1.41454 17.0872 1.41454H26.7632C28.6129 1.41454 30.1175 2.91962 30.1175 4.76937V8.01575H29.1745V4.76937C29.1745 3.4397 28.0928 2.35757 26.7632 2.35757H17.0872C15.7575 2.35757 14.6759 3.43923 14.6759 4.76937V8.01575H13.7329V4.76937ZM16.0904 8.01575V4.76937C16.0904 4.21958 16.5374 3.77212 17.0872 3.77212H26.7632C27.313 3.77212 27.76 4.21958 27.76 4.76937V8.01575H16.0904ZM1.41454 10.6091C1.41454 9.95933 1.94311 9.43029 2.59333 9.43029H13.0256H15.3832H28.4677H30.8253H41.2575C41.9077 9.43029 42.4363 9.95933 42.4363 10.6091V15.0097H38.9391V12.2448C38.9391 11.8539 38.6222 11.5375 38.2318 11.5375H34.5384C34.148 11.5375 33.8312 11.8539 33.8312 12.2448V15.0097H10.0197V12.2448C10.0197 11.8539 9.70283 11.5375 9.31241 11.5375H5.61904C5.22863 11.5375 4.91177 11.8539 4.91177 12.2448V15.0097H1.41454V10.6091ZM35.2457 15.7175V12.9525H37.5246V15.7175V18.4829H35.2457V15.7175ZM6.32631 15.7175V12.9525H8.60514V15.7175V18.4829H6.32631V15.7175ZM42.4363 37.4071C42.4363 38.0569 41.9077 38.5859 41.2575 38.5859H2.59333C1.94311 38.5859 1.41454 38.0569 1.41454 37.4071V16.4247H4.91177V19.1902C4.91177 19.5811 5.22863 19.8974 5.61904 19.8974H9.31241C9.70283 19.8974 10.0197 19.5811 10.0197 19.1902V16.4247H33.8312V19.1902C33.8312 19.5811 34.148 19.8974 34.5384 19.8974H38.2318C38.6222 19.8974 38.9391 19.5811 38.9391 19.1902V16.4247H42.4363V37.4071Z" fill="#6C63FF"/>
</svg>
