<svg width="40" height="41" viewBox="0 0 40 41" fill="none" xmlns="http://www.w3.org/2000/svg">
<path d="M1.47749e-06 0.0239258H6.55853C6.55853 0.0239258 6.55853 0.0239258 6.55853 0.0239258V39.3751C6.55853 39.3751 6.55853 39.3751 6.55853 39.3751H1.47749e-06C5.47933e-07 39.3751 0 39.3751 0 39.3751V0.0239258C0 0.0239258 5.47933e-07 0.0239258 1.47749e-06 0.0239258Z" fill="#63FFBA"/>
<path d="M9.83691 9.86169H16.3954H16.3954V39.375H16.3954H9.83691V9.86169Z" fill="#4849FF"/>
<path d="M19.6758 6.58247H26.2343C26.2343 6.58247 26.2343 6.58245 26.2343 6.58247V39.3751C26.2343 39.3751 26.2343 39.3751 26.2343 39.3751H19.6758V6.58247C19.6758 6.58247 19.6758 6.58245 19.6758 6.58247Z" fill="#63FFBA"/>
<path d="M32.9307 6.58304L39.351 7.92239C39.351 7.92239 39.351 7.92239 39.351 7.92239L32.6542 40.0239C32.6542 40.0239 32.6542 40.0239 32.6542 40.0239L26.2339 38.6846C26.2339 38.6846 26.2339 38.6846 26.2339 38.6846L32.9307 6.58304C32.9307 6.58304 32.9307 6.58304 32.9307 6.58304Z" fill="#4849FF"/>
</svg>
