<svg width="40" height="40" viewBox="0 0 40 40" fill="none" xmlns="http://www.w3.org/2000/svg">
<path d="M24.1433 20.434C24.1433 18.2722 22.3764 16.5132 20.2048 16.5132C18.0334 16.5132 16.2666 18.2723 16.2666 20.434C16.2666 22.5963 18.0334 24.355 20.2048 24.355C22.3764 24.355 24.1433 22.5963 24.1433 20.434ZM29.9945 0.0239258H10.006C4.49891 0.0239258 0.0185547 4.48481 0.0185547 9.96781V12.7384H14.7151C16.2658 11.6386 18.1598 10.9889 20.2048 10.9889C22.2498 10.9889 24.144 11.6386 25.6948 12.7384H39.9819V9.96781C39.9819 4.48477 35.5016 0.0239258 29.9945 0.0239258ZM34.0393 9.48133C34.0393 10.089 33.5401 10.5862 32.9296 10.5862H29.5008C28.8904 10.5862 28.3911 10.089 28.3911 9.48133V6.06725C28.3911 5.45965 28.8903 4.96237 29.5008 4.96237H32.9296C33.5401 4.96237 34.0393 5.45957 34.0393 6.06725V9.48133ZM29.6918 20.434C29.6918 25.6426 25.4357 29.8793 20.2048 29.8793C14.9736 29.8793 10.718 25.6426 10.718 20.434C10.718 19.0001 11.0424 17.6402 11.6192 16.4213H0.0185547V30.0318C0.0185547 35.5152 4.49891 39.9757 10.006 39.9757H29.9946C35.5016 39.9757 39.982 35.5152 39.982 30.0318V16.4213H28.7905C29.3674 17.6402 29.6918 19.0001 29.6918 20.434Z" fill="white"/>
</svg>
