<svg width="87" height="30" viewBox="0 0 87 30" fill="none" xmlns="http://www.w3.org/2000/svg">
<g clip-path="url(#clip0)">
<path d="M29.7969 6.99536C29.7969 7.55824 29.866 8.06625 30.0039 8.51903C30.1418 8.9718 30.3407 9.36083 30.5998 9.6865C30.8593 10.0122 31.1764 10.2633 31.5518 10.4402C31.9271 10.6168 32.3577 10.7052 32.8432 10.7052C33.3178 10.7052 33.7453 10.6168 34.1261 10.4402C34.5069 10.2637 34.827 10.0126 35.0861 9.6865C35.3457 9.36083 35.5442 8.9718 35.682 8.51903C35.8199 8.06625 35.889 7.55824 35.889 6.99536C35.889 6.43249 35.8199 5.92138 35.682 5.46359C35.5442 5.00541 35.3453 4.61329 35.0861 4.28762C34.8266 3.96195 34.5069 3.71084 34.1261 3.5339C33.7453 3.35735 33.3174 3.26888 32.8432 3.26888C32.3577 3.26888 31.9271 3.36005 31.5518 3.54201C31.1764 3.72397 30.8593 3.97817 30.5998 4.30384C30.3407 4.62952 30.1418 5.02125 30.0039 5.47981C29.866 5.93799 29.7969 6.44292 29.7969 6.99498V6.99536ZM38.5549 6.99536C38.5549 7.97817 38.4085 8.84199 38.1162 9.58721C37.8238 10.3324 37.4234 10.9563 36.9159 11.4586C36.4081 11.9608 35.8041 12.339 35.1031 12.5932C34.4022 12.847 33.6491 12.9741 32.8432 12.9741C32.0596 12.9741 31.32 12.8474 30.6249 12.5932C29.9294 12.3394 29.3227 11.9612 28.8036 11.4586C28.285 10.9563 27.8764 10.3324 27.5787 9.58721C27.2805 8.84199 27.1318 7.97817 27.1318 6.99536C27.1318 6.01256 27.2863 5.14873 27.5953 4.40352C27.9042 3.6583 28.3209 3.03168 28.8454 2.52366C29.3694 2.01565 29.9769 1.63473 30.6666 1.38092C31.3563 1.1271 32.082 1 32.8436 1C33.6271 1 34.3667 1.1271 35.0618 1.38092C35.7569 1.63473 36.364 2.01565 36.8827 2.52366C37.4013 3.03168 37.8099 3.6583 38.1077 4.40352C38.4058 5.14873 38.5545 6.01256 38.5545 6.99536H38.5549Z" fill="#4F4F50"/>
<path d="M39.8031 4.33122C40.2225 4.20953 40.7636 4.09673 41.4255 3.99165C42.0878 3.88657 42.7829 3.83441 43.5117 3.83441C44.2512 3.83441 44.8664 3.93099 45.3577 4.12415C45.8489 4.31732 46.2378 4.59045 46.5247 4.94393C46.8117 5.29742 47.016 5.71658 47.1372 6.20258C47.2585 6.68819 47.3191 7.22943 47.3191 7.82553V12.7442H44.8525V8.12338C44.8525 7.32871 44.7475 6.76545 44.5378 6.43437C44.3281 6.10329 43.9365 5.93756 43.3622 5.93756C43.1857 5.93756 42.9981 5.94567 42.7992 5.96228C42.6003 5.9789 42.4238 5.99821 42.2693 6.02023V12.7442H39.8027V4.33084L39.8031 4.33122Z" fill="#4F4F50"/>
<path d="M48.3271 8.45526C48.3271 7.68261 48.4457 7.00615 48.6832 6.42628C48.9207 5.84679 49.2324 5.3635 49.6186 4.97718C50.0048 4.59086 50.4493 4.29802 50.9513 4.09945C51.4533 3.90088 51.9693 3.80121 52.4991 3.80121C53.7353 3.80121 54.712 4.17942 55.4295 4.93584C56.1467 5.69227 56.5058 6.80449 56.5058 8.27291C56.5058 8.41662 56.5 8.57386 56.4892 8.745C56.478 8.91614 56.4672 9.06797 56.456 9.20047H50.8602C50.9154 9.70849 51.1525 10.1114 51.5719 10.4097C51.9913 10.7079 52.5544 10.8566 53.2607 10.8566C53.7133 10.8566 54.1574 10.8153 54.5934 10.7322C55.0294 10.6496 55.3855 10.5472 55.6612 10.4259L55.9922 12.4298C55.8597 12.4962 55.6833 12.5623 55.4624 12.6287C55.2415 12.6948 54.9962 12.7527 54.7255 12.8026C54.4552 12.8524 54.1655 12.8937 53.8566 12.927C53.5476 12.9602 53.2383 12.9764 52.9294 12.9764C52.1458 12.9764 51.4642 12.8605 50.8849 12.6287C50.3056 12.3969 49.8252 12.0794 49.4444 11.6764C49.0636 11.2735 48.7821 10.796 48.6002 10.2439C48.4179 9.69188 48.3271 9.09578 48.3271 8.45526ZM54.1215 7.51108C54.1103 7.3013 54.0744 7.09694 54.0138 6.89837C53.9531 6.69941 53.8593 6.52286 53.7322 6.36833C53.6052 6.2138 53.4453 6.0867 53.2522 5.98742C53.0591 5.88813 52.8189 5.8383 52.532 5.8383C52.2558 5.8383 52.0187 5.88504 51.8198 5.97892C51.6213 6.07279 51.4557 6.19719 51.3232 6.35172C51.1907 6.50625 51.0888 6.68589 51.0169 6.88987C50.9451 7.09424 50.893 7.30131 50.8598 7.51069H54.1211L54.1215 7.51108Z" fill="#4F4F50"/>
<path d="M34.5793 16.119H37.1621V27.5959H34.5793V22.7271H30.242V27.5959H27.6592V16.119H30.242V20.5077H34.5793V16.119Z" fill="#4F4F50"/>
<path d="M47.0042 23.2226C47.0042 23.9072 46.9049 24.5338 46.7061 25.1021C46.5072 25.6707 46.2206 26.1567 45.8452 26.5593C45.4699 26.9622 45.0203 27.2744 44.4959 27.495C43.9715 27.7159 43.3837 27.826 42.7326 27.826C42.0927 27.826 41.5103 27.7159 40.9858 27.495C40.4618 27.274 40.0119 26.9622 39.6365 26.5593C39.2611 26.1563 38.9688 25.6707 38.7591 25.1021C38.5494 24.5334 38.4443 23.9068 38.4443 23.2226C38.4443 22.538 38.5521 21.9141 38.7672 21.3512C38.9823 20.7884 39.2804 20.3078 39.6612 19.9103C40.042 19.5127 40.4946 19.2037 41.0187 18.9827C41.5427 18.7617 42.1143 18.6516 42.7322 18.6516C43.3617 18.6516 43.9382 18.7621 44.4623 18.9827C44.9864 19.2037 45.4363 19.5127 45.8116 19.9103C46.187 20.3078 46.4794 20.788 46.6891 21.3512C46.8988 21.9141 47.0038 22.538 47.0038 23.2226H47.0042ZM44.4878 23.2226C44.4878 22.4608 44.336 21.862 44.0325 21.4254C43.7289 20.9893 43.2956 20.7714 42.7326 20.7714C42.1699 20.7714 41.7335 20.9896 41.4245 21.4254C41.1156 21.8616 40.9611 22.4608 40.9611 23.2226C40.9611 23.9844 41.1156 24.589 41.4245 25.036C41.7335 25.483 42.1695 25.7067 42.7326 25.7067C43.2952 25.7067 43.7289 25.483 44.0325 25.036C44.336 24.589 44.4878 23.9844 44.4878 23.2226Z" fill="#4F4F50"/>
<path d="M50.5857 25.8226C51.0383 25.8226 51.3584 25.7785 51.5461 25.6901C51.7338 25.6016 51.8277 25.4304 51.8277 25.1766C51.8277 24.9781 51.706 24.8038 51.4635 24.6551C51.2206 24.506 50.851 24.3375 50.3544 24.1502C49.9682 24.0068 49.6175 23.8577 49.3032 23.7032C48.9888 23.5487 48.7212 23.3636 48.5003 23.1484C48.2798 22.9332 48.1083 22.6763 47.987 22.3781C47.8654 22.0799 47.8048 21.7213 47.8048 21.3018C47.8048 20.4847 48.1083 19.8388 48.7154 19.364C49.3225 18.8892 50.1559 18.6516 51.2152 18.6516C51.745 18.6516 52.2529 18.6987 52.7383 18.7926C53.2237 18.8865 53.6099 18.9885 53.8972 19.099L53.4666 21.0202C53.1797 20.9209 52.8681 20.8324 52.5313 20.7551C52.1945 20.6779 51.8165 20.6393 51.3971 20.6393C50.6243 20.6393 50.2381 20.8544 50.2381 21.2852C50.2381 21.3845 50.2547 21.4729 50.2876 21.5502C50.3208 21.6275 50.3868 21.702 50.4864 21.7739C50.5857 21.8457 50.7209 21.923 50.8919 22.0057C51.063 22.0914 51.2808 22.1822 51.5457 22.2819C52.0864 22.4836 52.5336 22.6794 52.8866 22.8753C53.24 23.0685 53.5184 23.2809 53.7227 23.5046C53.9266 23.731 54.0703 23.9821 54.1533 24.2579C54.2359 24.5342 54.2773 24.8513 54.2773 25.2156C54.2773 26.0741 53.9544 26.7254 53.3087 27.1674C52.663 27.6062 51.7497 27.8268 50.5687 27.8268C49.7963 27.8268 49.1533 27.7608 48.6401 27.6282C48.1268 27.4957 47.7708 27.3852 47.5723 27.2972L47.9863 25.2933C48.4057 25.4586 48.8359 25.5884 49.2777 25.6823C49.7191 25.7762 50.1551 25.8233 50.5857 25.8233V25.8226Z" fill="#4F4F50"/>
<path d="M60.9211 23.3049C60.9211 22.5431 60.75 21.9331 60.4078 21.4749C60.0657 21.0167 59.5578 20.7877 58.8847 20.7877C58.6638 20.7877 58.4599 20.7958 58.2722 20.8124C58.0845 20.829 57.93 20.8483 57.8088 20.8703V25.3254C57.9633 25.4247 58.1648 25.5078 58.4132 25.5738C58.6615 25.6399 58.9125 25.6731 59.1662 25.6731C60.3364 25.6731 60.9211 24.8838 60.9211 23.3049ZM63.4375 23.2385C63.4375 23.9122 63.3548 24.525 63.1892 25.077C63.0235 25.6291 62.781 26.1039 62.4608 26.5014C62.1407 26.8989 61.7437 27.208 61.2686 27.429C60.794 27.6499 60.2476 27.76 59.6297 27.76C59.2875 27.76 58.9673 27.7268 58.6696 27.6607C58.3715 27.5943 58.0845 27.5004 57.8084 27.3791V30.6582H55.3418V19.1813C55.5627 19.1149 55.8164 19.0515 56.1034 18.9909C56.3903 18.9302 56.6911 18.8777 57.0055 18.8336C57.3202 18.7896 57.64 18.7537 57.966 18.7258C58.2915 18.6984 58.6032 18.6845 58.9013 18.6845C59.6188 18.6845 60.2588 18.7923 60.8218 19.0075C61.3845 19.2227 61.8595 19.5263 62.2457 19.918C62.6319 20.3102 62.9273 20.7877 63.1316 21.3505C63.3359 21.9134 63.4379 22.5431 63.4379 23.2385H63.4375Z" fill="#4F4F50"/>
<path d="M67.0317 27.5975H64.5651V18.8862H67.0317V27.5975ZM67.2634 16.369C67.2634 16.8217 67.117 17.1775 66.8247 17.4371C66.5323 17.6968 66.1875 17.8262 65.7901 17.8262C65.3927 17.8262 65.0478 17.6964 64.7551 17.4371C64.4628 17.1775 64.3164 16.8217 64.3164 16.369C64.3164 15.9162 64.4628 15.5604 64.7551 15.3008C65.0475 15.0412 65.3927 14.9117 65.7901 14.9117C66.1875 14.9117 66.5323 15.0415 66.8247 15.3008C67.117 15.5604 67.2634 15.9162 67.2634 16.369Z" fill="#4F4F50"/>
<path d="M68.4662 16.7145L70.9328 16.317V18.8841H73.8964V20.9378H70.9328V24.0018C70.9328 24.5206 71.0239 24.9347 71.2058 25.2438C71.3877 25.5529 71.755 25.7074 72.3068 25.7074C72.5718 25.7074 72.8448 25.6823 73.1263 25.6328C73.4079 25.583 73.6643 25.5142 73.896 25.4258L74.2436 27.3469C73.9454 27.4682 73.6145 27.5733 73.2503 27.6618C72.8861 27.7499 72.4393 27.7943 71.9095 27.7943C71.2363 27.7943 70.6787 27.7031 70.2373 27.5212C69.7959 27.3388 69.4425 27.085 69.1776 26.7593C68.9126 26.4337 68.7277 26.0389 68.623 25.5753C68.5183 25.1117 68.4658 24.5979 68.4658 24.035V16.7149L68.4662 16.7145Z" fill="#4F4F50"/>
<path d="M78.1033 25.8728C78.3462 25.8728 78.578 25.867 78.7985 25.8562C79.0194 25.845 79.1959 25.8284 79.3283 25.8063V23.935C79.2291 23.913 79.08 23.8906 78.8815 23.8685C78.683 23.8465 78.5007 23.8353 78.3351 23.8353C78.1033 23.8353 77.8851 23.8492 77.6812 23.8766C77.4769 23.9041 77.2977 23.9566 77.1433 24.0339C76.9888 24.1111 76.8672 24.2162 76.7791 24.3487C76.6907 24.4812 76.6466 24.647 76.6466 24.8455C76.6466 25.2319 76.776 25.4996 77.0355 25.6487C77.2951 25.7978 77.6507 25.8724 78.1033 25.8724V25.8728ZM77.9045 18.652C78.6328 18.652 79.2399 18.7351 79.7257 18.9004C80.2111 19.0661 80.6004 19.3033 80.8928 19.6124C81.1851 19.9215 81.3921 20.297 81.5138 20.7385C81.635 21.1801 81.6956 21.6715 81.6956 22.2124V27.3466C81.3423 27.4239 80.8514 27.515 80.2223 27.6197C79.5933 27.7248 78.8317 27.777 77.9377 27.777C77.375 27.777 76.8641 27.7271 76.4064 27.6279C75.9484 27.5286 75.5537 27.3655 75.2228 27.1392C74.8918 26.9128 74.6377 26.6176 74.4612 26.2529C74.2847 25.8886 74.1963 25.4416 74.1963 24.9116C74.1963 24.4036 74.2986 23.9732 74.5025 23.6197C74.7064 23.2663 74.9799 22.985 75.322 22.7752C75.6642 22.5655 76.0562 22.4136 76.4976 22.3198C76.939 22.2259 77.397 22.1791 77.8716 22.1791C78.1918 22.1791 78.476 22.1927 78.7243 22.2205C78.9726 22.2479 79.1742 22.2838 79.3287 22.3283V22.0965C79.3287 21.6769 79.202 21.3404 78.9479 21.0862C78.6942 20.8324 78.2528 20.7053 77.6233 20.7053C77.2039 20.7053 76.7899 20.7354 76.3817 20.7961C75.9735 20.8568 75.6202 20.9425 75.322 21.053L75.0077 19.0658C75.1509 19.0213 75.3305 18.9746 75.5456 18.9247C75.7607 18.8749 75.9955 18.8309 76.2493 18.7922C76.503 18.7536 76.7706 18.7204 77.0521 18.6929C77.3337 18.6651 77.6179 18.6516 77.9048 18.6516L77.9045 18.652Z" fill="#4F4F50"/>
<path d="M86.5759 27.7598C85.8583 27.7486 85.2763 27.6713 84.8291 27.528C84.3823 27.3846 84.029 27.183 83.7694 26.9234C83.5099 26.6638 83.3334 26.3493 83.2396 25.9792C83.1457 25.6095 83.0986 25.1926 83.0986 24.7287V15.1397L85.5652 14.7422V24.2319C85.5652 24.4528 85.5818 24.6514 85.615 24.828C85.6482 25.0045 85.7116 25.1536 85.8054 25.2749C85.8993 25.3962 86.0344 25.4959 86.2109 25.5732C86.3874 25.6504 86.6249 25.6999 86.9227 25.7223L86.5751 27.7594L86.5759 27.7598Z" fill="#4F4F50"/>
<path fill-rule="evenodd" clip-rule="evenodd" d="M6.75095 12.7271H14.2496V0H18.0763C19.6581 0 20.9453 1.25517 20.999 2.82442V27.0751C20.999 28.7978 19.5542 29.9988 18.0763 29.9988L14.2496 30V18.5281H6.75095V30L2.79021 29.9969C1.23657 29.927 0 28.6455 0 27.0751V11.3931C2.81183 9.93278 5.15638 7.69751 6.75095 4.97006V12.7271Z" fill="#63FFBA"/>
<path fill-rule="evenodd" clip-rule="evenodd" d="M6.74439 0C5.84998 3.91771 3.36292 7.22813 0 9.21499V2.92486C0 1.30925 1.30879 0 2.92383 0H6.74439Z" fill="#63FFBA"/>
</g>
<defs>
<clipPath id="clip0">
<rect width="86.9231" height="30" fill="white"/>
</clipPath>
</defs>
</svg>
