<svg width="101" height="120" viewBox="0 0 101 120" fill="none" xmlns="http://www.w3.org/2000/svg">
<path d="M43.3383 76.7068L26.5312 59.8947L30.0751 56.3509L44.9423 71.223L69.8546 41.3283L73.7042 44.5363L47.0375 76.5363L43.3383 76.7068Z" fill="#63FFBA"/>
<path d="M50.6015 120L49.5489 119.975C27.2431 114.697 0 85.9298 0 59.8947V21.8647C0 18.1504 2.83208 14.9724 6.59148 14.4762C17.2531 13.0576 35.4837 6.84211 48.9925 0.0150376L51.2181 0C66.0301 7.18296 83.4837 13.1378 93.6642 14.4812C97.4787 14.9825 100.251 18.1153 100.251 21.9298V59.8947C100.251 86.817 77.0476 114.907 50.6015 120ZM50.1454 5.04261C36.1303 11.9699 18.2807 17.9749 7.24812 19.4436C5.95489 19.614 5.01253 20.6316 5.01253 21.8647V59.8947C5.01253 83.183 30.1253 109.87 50.1805 114.972C74.2456 110.025 95.2381 84.4361 95.2381 59.8947V21.9298C95.2381 20.6617 94.3008 19.6191 93.0125 19.4436C80.8672 17.8396 62.9674 11.1479 50.1454 5.04261Z" fill="#6C63FF"/>
</svg>
