<svg height="511.99999pt" viewBox="1 1 511.99999 511.99999" width="511.99999pt" xmlns="http://www.w3.org/2000/svg"><path d="m496 256c0 132.546875-107.453125 240-240 240s-240-107.453125-240-240 107.453125-240 240-240 240 107.453125 240 240zm0 0" fill="#bddbff"/><g fill="#3d9ae2"><path d="m256 0c-141.382812 0-256 114.617188-256 256s114.617188 256 256 256 256-114.617188 256-256c-.167969-141.316406-114.683594-255.832031-256-256zm16 479.183594v-31.183594c0-8.835938-7.164062-16-16-16s-16 7.164062-16 16v31.183594c-110.917969-8.054688-199.128906-96.265625-207.183594-207.183594h31.183594c8.835938 0 16-7.164062 16-16s-7.164062-16-16-16h-31.183594c8.054688-110.917969 96.265625-199.128906 207.183594-207.183594v31.183594c0 8.835938 7.164062 16 16 16s16-7.164062 16-16v-31.183594c110.917969 8.054688 199.128906 96.265625 207.183594 207.183594h-31.183594c-8.835938 0-16 7.164062-16 16s7.164062 16 16 16h31.183594c-8.054688 110.917969-96.265625 199.128906-207.183594 207.183594zm0 0"/><path d="m352 240h-80v-96c0-8.835938-7.164062-16-16-16s-16 7.164062-16 16v112c0 8.835938 7.164062 16 16 16h96c8.835938 0 16-7.164062 16-16s-7.164062-16-16-16zm0 0"/></g></svg>